# xmcd
#
# Track frame offsets:
#	150
#	18527
#	42395
#	69490
#	90540
#
# Disc length: 1460 seconds
# Revision: 0
# Processed by: cddbd v1.5.2PL0 Copyright (c) Steve Scherf et al.
# Submitted via: dBpowerAMP V12.0
#
DISCID=3a05b205
DTITLE=Sybil - Let It Rain
DYEAR=1991
DGENRE=Quiet Storm
TTITLE0=Let It Rain [Radio Remix]
TTITLE1=Let It Rain [Extended Remix Version]
TTITLE2=Let It Rain [D'Anthony's Moody Vibe Remix]
TTITLE3=Let It Rain [Instrumental Remix]
TTITLE4=Let It Rain [Quiet Thunderstorm Mix]
EXTD=
EXTT0=
EXTT1=
EXTT2=
EXTT3=
EXTT4=
PLAYORDER=
